# xmcd
#
# Track frame offsets: 
#        150
#        17312
#        39171
#        54278
#        72834
#        87768
#        101738
#        123053
#        142003
#        165360
#        182311
#        194505
#
# Disc length: 2881 seconds
#
# Revision: 0
# Processed by: cddbd v1.5.2PL0 Copyright (c) Steve Scherf et al.
# Submitted via: ExactAudioCopy v0.95b1
#
DISCID=890b3f0c
DTITLE=Donna Greene and The Roadhouse Daddies - A Girl's Gotta Have a Li
DTITLE=ttle Pleasure
DYEAR=2008
DGENRE=Jazz
TTITLE0=Baby Get Lost 
TTITLE1=Blues on a Holiday
TTITLE2=Comes Love 
TTITLE3=Same Old Blues
TTITLE4=A Girl's Gotta Have a Little Pleasure
TTITLE5=Double Crossing Blues 
TTITLE6=Love Make a Fool of Me
TTITLE7=Shoe Boy
TTITLE8=Lover Man
TTITLE9=You Can Have My Husband 
TTITLE10=Mess Around
TTITLE11=Autumn Leaves
EXTD=
EXTT0=
EXTT1=
EXTT2=
EXTT3=
EXTT4=
EXTT5=
EXTT6=
EXTT7=
EXTT8=
EXTT9=
EXTT10=
EXTT11=
PLAYORDER=
